<?xml version="1.0" encoding="UTF-8" standalone="no"?> <!-- Created with Vectornator (http://vectornator.io/) --><!DOCTYPE svg PUBLIC "-//W3C//DTD SVG 1.1//EN" "http://www.w3.org/Graphics/SVG/1.1/DTD/svg11.dtd">
<svg height="100%" stroke-miterlimit="10" style="fill-rule:nonzero;clip-rule:evenodd;stroke-linecap:round;stroke-linejoin:round;" version="1.1" viewBox="0 0 1920 1080" width="100%" xml:space="preserve" xmlns="http://www.w3.org/2000/svg" xmlns:vectornator="http://vectornator.io" xmlns:xlink="http://www.w3.org/1999/xlink">
<metadata>
<vectornator:setting key="IsTimeLapseWatermarkDisabled" value="false"/>
<vectornator:setting key="UndoHistoryDisabled" value="true"/>
<vectornator:setting key="VNDimensionsVisible" value="true"/>
<vectornator:setting key="VNSnapToGuides" value="true"/>
<vectornator:setting key="WDCMYKEnabledKey" value="false"/>
<vectornator:setting key="WDDisplayWhiteBackground" value="false"/>
<vectornator:setting key="WDDynamicGuides" value="false"/>
<vectornator:setting key="WDGuidesVisible" value="true"/>
<vectornator:setting key="WDIsolateActiveLayer" value="false"/>
<vectornator:setting key="WDOutlineMode" value="false"/>
<vectornator:setting key="WDRulersVisible" value="true"/>
<vectornator:setting key="WDSnapToEdges" value="false"/>
<vectornator:setting key="WDSnapToGrid" value="false"/>
<vectornator:setting key="WDSnapToPoints" value="false"/>
<vectornator:setting key="WDUnits" value="Points"/>
</metadata>
<defs/>
<g id="Layer-2" vectornator:layerName="Layer 2">
<g opacity="1">
<path d="M120.03 435.248L245.638 92.214L312.804 92.214L438.411 435.248L369.501 435.248L335.918 343.695L202.46 343.695L168.878 435.248L120.03 435.248ZM219.034 298.035L319.346 298.035L269.189 161.284L219.034 298.035Z" fill="#f26419" fill-rule="evenodd" opacity="1" stroke="none"/>
<path d="M499.558 435.248L499.558 92.214L566.722 92.214L566.722 386.574L712.174 386.574L712.174 435.248L499.558 435.248Z" fill="#f26419" fill-rule="evenodd" opacity="1" stroke="none"/>
<path d="M774.63 435.248L774.63 92.214L976.344 92.214L976.344 139.265L841.794 139.265L841.794 234.991L952.138 234.991L952.138 280.883L841.794 280.883L841.794 386.574L986.59 386.574L986.59 435.248L774.63 435.248Z" fill="#f26419" fill-rule="evenodd" opacity="1" stroke="none"/>
<path d="M1028.55 435.248L1131.92 266.281L1033.13 92.214L1111.41 92.214L1177.05 207.641L1248.15 92.214L1302.45 92.214L1203.43 253.996L1305.93 435.248L1227.87 435.248L1157.87 312.636L1082.85 435.248L1028.55 435.248Z" fill="#f26419" fill-rule="evenodd" opacity="1" stroke="none"/>
<path d="M155.357 995.557L155.357 652.523L222.523 652.523L222.523 791.822L355.98 791.822L355.98 652.523L423.146 652.523L423.146 995.557L355.98 995.557L355.98 839.106L222.523 839.106L222.523 995.557L155.357 995.557Z" fill="#f26419" fill-rule="evenodd" opacity="1" stroke="none"/>
<path d="M660.71 1004.13C611.718 1004.13 572.538 987.754 543.171 954.995C513.804 922.237 499.121 878.586 499.121 824.041C499.121 768.876 513.878 725.07 543.389 692.62C572.901 660.172 612.735 643.947 662.891 643.947C712.756 643.947 752.48 660.172 782.065 692.62C811.65 725.07 826.443 768.645 826.443 823.345C826.443 879.281 811.65 923.397 782.065 955.691C752.48 987.986 712.029 1004.13 660.71 1004.13ZM661.582 956.85C690.367 956.85 713.156 944.836 729.947 920.809C746.738 896.78 755.134 864.214 755.134 823.112C755.134 783.246 746.703 751.26 729.838 727.155C712.974 703.051 690.658 690.998 662.891 690.998C634.832 690.998 612.408 703.051 595.617 727.155C578.826 751.26 570.43 783.479 570.43 823.808C570.43 863.829 578.789 896.008 595.507 920.345C612.227 944.681 634.252 956.85 661.582 956.85Z" fill="#f26419" fill-rule="evenodd" opacity="1" stroke="none"/>
<path d="M866.873 995.557L992.484 652.523L1059.64 652.523L1185.26 995.557L1116.35 995.557L1082.77 904.004L949.303 904.004L915.72 995.557L866.873 995.557ZM965.875 858.344L1066.19 858.344L1016.03 721.593L965.875 858.344Z" fill="#f26419" fill-rule="evenodd" opacity="1" stroke="none"/>
<path d="M1246.4 995.557L1246.4 652.523L1305.5 652.523L1455.09 886.852L1455.09 652.523L1508.95 652.523L1508.95 995.557L1448.77 995.557L1300.26 761.227L1300.26 995.557L1246.4 995.557Z" fill="#f26419" fill-rule="evenodd" opacity="1" stroke="none"/>
<path d="M1862.75 987.445C1822.33 998.57 1787.44 1004.13 1758.07 1004.13C1702.4 1004.13 1659.62 988.566 1629.74 957.429C1599.87 926.293 1584.93 881.676 1584.93 823.576C1584.93 765.941 1599.87 721.593 1629.74 690.535C1659.62 659.476 1702.17 643.947 1757.42 643.947C1792.75 643.947 1827.79 648.351 1862.53 657.159L1862.53 713.017C1822.26 698.338 1789.19 690.998 1763.31 690.998C1729.14 690.998 1702.75 702.587 1684.16 725.766C1665.54 748.943 1656.24 781.778 1656.24 824.272C1656.24 865.374 1666.19 897.63 1686.12 921.04C1706.03 944.45 1733.51 956.155 1768.54 956.155C1776.25 956.155 1785.26 954.995 1795.58 952.677L1795.58 839.801L1862.75 839.801L1862.75 987.445Z" fill="#f26419" fill-rule="evenodd" opacity="1" stroke="none"/>
</g>
</g>
<g id="Layer-1" vectornator:layerName="Layer 1">
<g opacity="1">
<path d="M92.1882 435.248L217.796 92.214L284.962 92.214L410.569 435.248L341.659 435.248L308.076 343.695L174.618 343.695L141.036 435.248L92.1882 435.248ZM191.192 298.035L291.502 298.035L241.347 161.284L191.192 298.035Z" fill="#86bbd8" fill-rule="evenodd" opacity="1" stroke="none"/>
<path d="M471.716 435.248L471.716 92.214L538.88 92.214L538.88 386.574L684.332 386.574L684.332 435.248L471.716 435.248Z" fill="#86bbd8" fill-rule="evenodd" opacity="1" stroke="none"/>
<path d="M746.788 435.248L746.788 92.214L948.501 92.214L948.501 139.265L813.952 139.265L813.952 234.991L924.296 234.991L924.296 280.883L813.952 280.883L813.952 386.574L958.751 386.574L958.751 435.248L746.788 435.248Z" fill="#86bbd8" fill-rule="evenodd" opacity="1" stroke="none"/>
<path d="M1000.71 435.248L1104.08 266.281L1005.29 92.214L1083.57 92.214L1149.21 207.641L1220.31 92.214L1274.61 92.214L1175.59 253.996L1278.08 435.248L1200.03 435.248L1130.03 312.636L1055.01 435.248L1000.71 435.248Z" fill="#86bbd8" fill-rule="evenodd" opacity="1" stroke="none"/>
<path d="M127.515 995.557L127.515 652.523L194.681 652.523L194.681 791.822L328.138 791.822L328.138 652.523L395.304 652.523L395.304 995.557L328.138 995.557L328.138 839.106L194.681 839.106L194.681 995.557L127.515 995.557Z" fill="#86bbd8" fill-rule="evenodd" opacity="1" stroke="none"/>
<path d="M632.868 1004.13C583.876 1004.13 544.696 987.754 515.329 954.995C485.962 922.237 471.279 878.586 471.279 824.041C471.279 768.876 486.035 725.07 515.547 692.62C545.059 660.172 584.893 643.947 635.049 643.947C684.914 643.947 724.638 660.172 754.223 692.62C783.808 725.07 798.601 768.645 798.601 823.345C798.601 879.281 783.808 923.397 754.223 955.691C724.638 987.986 684.187 1004.13 632.868 1004.13ZM633.74 956.85C662.525 956.85 685.313 944.836 702.104 920.809C718.896 896.78 727.292 864.214 727.292 823.112C727.292 783.246 718.859 751.26 701.996 727.157C685.132 703.051 662.816 690.998 635.049 690.998C606.99 690.998 584.565 703.051 567.774 727.157C550.984 751.26 542.587 783.479 542.587 823.808C542.587 863.829 550.947 896.008 567.665 920.345C584.385 944.681 606.409 956.85 633.74 956.85Z" fill="#86bbd8" fill-rule="evenodd" opacity="1" stroke="none"/>
<path d="M839.031 995.557L964.639 652.523L1031.8 652.523L1157.42 995.557L1088.5 995.557L1054.92 904.004L921.461 904.004L887.878 995.557L839.031 995.557ZM938.033 858.344L1038.35 858.344L988.187 721.593L938.033 858.344Z" fill="#86bbd8" fill-rule="evenodd" opacity="1" stroke="none"/>
<path d="M1218.56 995.557L1218.56 652.523L1277.66 652.523L1427.24 886.852L1427.24 652.523L1481.11 652.523L1481.11 995.557L1420.93 995.557L1272.42 761.227L1272.42 995.557L1218.56 995.557Z" fill="#86bbd8" fill-rule="evenodd" opacity="1" stroke="none"/>
<path d="M1834.91 987.445C1794.49 998.57 1759.6 1004.13 1730.23 1004.13C1674.56 1004.13 1631.78 988.566 1601.9 957.43C1572.02 926.293 1557.08 881.676 1557.08 823.576C1557.08 765.941 1572.02 721.593 1601.9 690.535C1631.78 659.476 1674.33 643.947 1729.58 643.947C1764.91 643.947 1799.95 648.351 1834.69 657.159L1834.69 713.017C1794.42 698.338 1761.35 690.998 1735.47 690.998C1701.3 690.998 1674.91 702.587 1656.31 725.766C1637.7 748.943 1628.4 781.778 1628.4 824.272C1628.4 865.374 1638.35 897.63 1658.28 921.04C1678.19 944.45 1705.67 956.155 1740.7 956.155C1748.4 956.155 1757.42 954.995 1767.74 952.677L1767.74 839.801L1834.91 839.801L1834.91 987.445Z" fill="#86bbd8" fill-rule="evenodd" opacity="1" stroke="none"/>
</g>
</g>
<g id="Layer-3" vectornator:layerName="Layer 3">
<g opacity="1">
<path d="M63.4741 435.248L189.082 92.2132L256.248 92.2132L381.855 435.248L312.945 435.248L279.362 343.694L145.905 343.694L112.322 435.248L63.4741 435.248ZM162.478 298.034L262.79 298.034L212.633 161.284L162.478 298.034Z" fill="#f6ae2d" fill-rule="evenodd" opacity="1" stroke="#f6ae2d" stroke-dasharray="6.0" stroke-linecap="round" stroke-linejoin="round" stroke-width="1"/>
<path d="M443.002 435.248L443.002 92.2132L510.166 92.2132L510.166 386.574L655.618 386.574L655.618 435.248L443.002 435.248Z" fill="#f6ae2d" fill-rule="evenodd" opacity="1" stroke="#f6ae2d" stroke-dasharray="6.0" stroke-linecap="round" stroke-linejoin="round" stroke-width="1"/>
<path d="M718.073 435.248L718.073 92.2132L919.787 92.2132L919.787 139.264L785.239 139.264L785.239 234.99L895.582 234.99L895.582 280.883L785.239 280.883L785.239 386.574L930.037 386.574L930.037 435.248L718.073 435.248Z" fill="#f6ae2d" fill-rule="evenodd" opacity="1" stroke="#f6ae2d" stroke-dasharray="6.0" stroke-linecap="round" stroke-linejoin="round" stroke-width="1"/>
<path d="M971.993 435.248L1075.36 266.28L976.573 92.2132L1054.85 92.2132L1120.5 207.64L1191.59 92.2132L1245.89 92.2132L1146.89 253.995L1249.38 435.248L1171.31 435.248L1101.31 312.637L1026.29 435.248L971.993 435.248Z" fill="#f6ae2d" fill-rule="evenodd" opacity="1" stroke="#f6ae2d" stroke-dasharray="6.0" stroke-linecap="round" stroke-linejoin="round" stroke-width="1"/>
<path d="M98.8011 995.557L98.8011 652.522L165.967 652.522L165.967 791.823L299.425 791.823L299.425 652.522L366.59 652.522L366.59 995.557L299.425 995.557L299.425 839.105L165.967 839.105L165.967 995.557L98.8011 995.557Z" fill="#f6ae2d" fill-rule="evenodd" opacity="1" stroke="#f6ae2d" stroke-dasharray="6.0" stroke-linecap="round" stroke-linejoin="round" stroke-width="1"/>
<path d="M604.154 1004.13C555.162 1004.13 515.982 987.754 486.615 954.996C457.249 922.237 442.565 878.585 442.565 824.04C442.565 768.876 457.321 725.069 486.834 692.621C516.345 660.171 556.179 643.946 606.335 643.946C656.2 643.946 695.925 660.171 725.509 692.621C755.093 725.069 769.887 768.644 769.887 823.344C769.887 879.281 755.093 923.396 725.509 955.69C695.925 987.985 655.472 1004.13 604.154 1004.13ZM605.026 956.85C633.812 956.85 656.6 944.835 673.392 920.808C690.182 896.779 698.578 864.215 698.578 823.113C698.578 783.247 690.146 751.261 673.281 727.156C656.418 703.051 634.102 690.997 606.335 690.997C578.276 690.997 555.853 703.051 539.061 727.156C522.27 751.261 513.873 783.478 513.873 823.808C513.873 863.828 522.233 896.007 538.952 920.344C555.67 944.68 577.695 956.85 605.026 956.85Z" fill="#f6ae2d" fill-rule="evenodd" opacity="1" stroke="#f6ae2d" stroke-dasharray="6.0" stroke-linecap="round" stroke-linejoin="round" stroke-width="1"/>
<path d="M810.317 995.557L935.925 652.522L1003.08 652.522L1128.7 995.557L1059.79 995.557L1026.2 904.003L892.747 904.003L859.164 995.557L810.317 995.557ZM909.32 858.343L1009.63 858.343L959.476 721.593L909.32 858.343Z" fill="#f6ae2d" fill-rule="evenodd" opacity="1" stroke="#f6ae2d" stroke-dasharray="6.0" stroke-linecap="round" stroke-linejoin="round" stroke-width="1"/>
<path d="M1189.84 995.557L1189.84 652.522L1248.94 652.522L1398.54 886.851L1398.54 652.522L1452.4 652.522L1452.4 995.557L1392.21 995.557L1243.71 761.227L1243.71 995.557L1189.84 995.557Z" fill="#f6ae2d" fill-rule="evenodd" opacity="1" stroke="#f6ae2d" stroke-dasharray="6.0" stroke-linecap="round" stroke-linejoin="round" stroke-width="1"/>
<path d="M1806.19 987.444C1765.77 998.569 1730.89 1004.13 1701.52 1004.13C1645.84 1004.13 1603.06 988.565 1573.18 957.429C1543.31 926.292 1528.37 881.675 1528.37 823.576C1528.37 765.94 1543.31 721.593 1573.18 690.535C1603.06 659.476 1645.63 643.946 1700.86 643.946C1736.19 643.946 1771.23 648.351 1805.97 657.158L1805.97 713.018C1765.7 698.338 1732.63 690.997 1706.75 690.997C1672.59 690.997 1646.21 702.586 1627.59 725.765C1608.98 748.943 1599.68 781.778 1599.68 824.271C1599.68 865.373 1609.65 897.63 1629.56 921.039C1649.47 944.449 1676.95 956.154 1711.98 956.154C1719.69 956.154 1728.7 954.996 1739.03 952.678L1739.03 839.801L1806.19 839.801L1806.19 987.444Z" fill="#f6ae2d" fill-rule="evenodd" opacity="1" stroke="#f6ae2d" stroke-dasharray="6.0" stroke-linecap="round" stroke-linejoin="round" stroke-width="1"/>
</g>
</g>
</svg>
